<svg xmlns="http://www.w3.org/2000/svg" viewBox="0 0 1080 1080"><defs><style>.cls-1{fill:#3a4764;}.cls-2{fill:#fff;}</style></defs><g id="Layer_2" data-name="Layer 2"><g id="Layer_1-2" data-name="Layer 1"><rect class="cls-1" width="1080" height="1080" rx="540"/><path class="cls-2" d="M284.21,653.65a102.33,102.33,0,0,1-70.63-27.78,96.28,96.28,0,0,1-21.73-30.32A88.05,88.05,0,0,1,184,558.49a90.13,90.13,0,0,1,7.45-36.28,96.75,96.75,0,0,1,21-30.58,99.55,99.55,0,0,1,31.81-21A101.64,101.64,0,0,1,283.86,463a114.11,114.11,0,0,1,33.56,4.91q16,4.9,25.85,12.79l-18.4,36.11q-13.14-9.64-32.6-9.64-16.65,0-28.3,7.36a47.4,47.4,0,0,0-17.53,19.1,54.62,54.62,0,0,0-5.87,24.71,52.75,52.75,0,0,0,6.4,25.85,47.29,47.29,0,0,0,18.23,18.49q11.82,6.84,27.42,6.84a58.18,58.18,0,0,0,18.14-2.72,50.45,50.45,0,0,0,14.11-6.92l18.4,36.1q-10.15,7.54-25.85,12.62A107.05,107.05,0,0,1,284.21,653.65Z"/><path class="cls-2" d="M459.82,653.65a84.64,84.64,0,0,1-44.95-12.35,88.91,88.91,0,0,1-32.07-34Q371,585.66,371,558.14q0-27.17,11.48-48.64a88.47,88.47,0,0,1,31.54-34Q434.06,463,459.82,463a87.86,87.86,0,0,1,35.67,7.27,70.84,70.84,0,0,1,27.08,20.25V468.58h53.8V648h-53.8V624.38A87.33,87.33,0,0,1,494.35,646,79,79,0,0,1,459.82,653.65Zm15.95-45.74a47.59,47.59,0,0,0,24.8-6.4,46.15,46.15,0,0,0,17-17.52q6.23-11.13,6.22-25.68a51.85,51.85,0,0,0-6.22-25.59,46.11,46.11,0,0,0-17-17.61,51.08,51.08,0,0,0-49.51,0,46.57,46.57,0,0,0-17.18,17.61,54.76,54.76,0,0,0,0,51,46.72,46.72,0,0,0,41.89,24.19Z"/><path class="cls-2" d="M639.46,648V346.6h54V648Z"/><path class="cls-2" d="M840.66,653.65A102.29,102.29,0,0,1,770,625.87a96.12,96.12,0,0,1-21.73-30.32,88.05,88.05,0,0,1-7.89-37.06,90.13,90.13,0,0,1,7.45-36.28,96.43,96.43,0,0,1,21-30.58,99.33,99.33,0,0,1,31.81-21A101.64,101.64,0,0,1,840.31,463a114.11,114.11,0,0,1,33.56,4.91q16,4.9,25.85,12.79l-18.4,36.11q-13.16-9.64-32.6-9.64-16.65,0-28.3,7.36a47.26,47.26,0,0,0-17.53,19.1A54.49,54.49,0,0,0,797,558.31a52.75,52.75,0,0,0,6.4,25.85,47.26,47.26,0,0,0,18.22,18.49q11.83,6.84,27.43,6.84a58.22,58.22,0,0,0,18.14-2.72,50.59,50.59,0,0,0,14.11-6.92l18.4,36.1q-10.17,7.54-25.85,12.62A107.05,107.05,0,0,1,840.66,653.65Z"/></g></g></svg>